#!OML:ASF X:\für Bonn\!DataBase\2005_08_12_Daniel\c3d\Daniel.ASF
:FULLY-SPECIFIED
:DEGREES
93
root 8.95755 16.0979 10.9182 891.363 -45.2859 -901.696
lowerback 40.2311 5.05081 -5.83972
upperback 9.68358 0.740691 -4.75119
thorax -8.64436 -0.620862 -2.21532
lowerneck -4.79233 -0.366123 -5.16803
upperneck -3.03947 -0.330933 1.12537
head -0.128983 -0.154052 1.20548
rclavicle 2.06736e-014 4.45278e-014
rhumerus -37.1555 5.4432 -92.93
rradius 63.4964
rwrist 2.28369
rhand -29.4299 13.3206
rfingers 7.12502
rthumb -2.76686 -16.6412
lclavicle 2.06736e-014 4.45278e-014
lhumerus -28.6521 23.471 77.0131
lradius 68.3573
lwrist -8.25262
lhand -27.0249 -0.936838
lfingers 7.12502
lthumb -0.444123 29.0424
rfemur -7.53609 -4.85232 16.137
rtibia 76.712
rfoot -15.0224 6.80898
rtoes -13.9115
lfemur -25.9143 2.37917 -24.0172
ltibia 64.5116
lfoot -27.2498 -5.6373
ltoes -3.6168
94
root 8.86351 16.0993 10.8502 891.079 -45.0247 -901.564
lowerback 40.318 4.95025 -5.75677
upperback 9.71535 0.630127 -4.71855
thorax -8.6383 -0.680279 -2.17745
lowerneck -4.82227 -0.267171 -5.03009
upperneck -2.99541 -0.203518 1.02956
head -0.114945 -0.0919583 1.15285
rclavicle 5.64548e-014 -3.18055e-014
rhumerus -37.3336 5.51459 -92.9462
rradius 63.64
rwrist 2.17685
rhand -29.4649 13.3956
rfingers 7.12502
rthumb -2.80066 -16.5658
lclavicle 5.64548e-014 -3.18055e-014
lhumerus -28.5358 23.1821 77.1108
lradius 68.5313
lwrist -8.18763
lhand -27.0285 -0.884916
lfingers 7.12502
lthumb -0.447632 29.0944
rfemur -8.93289 -4.5673 16.3643
rtibia 77.0845
rfoot -15.3926 7.12512
rtoes -13.8876
lfemur -25.223 2.36058 -23.9635
ltibia 64.5922
lfoot -27.7485 -5.33373
ltoes -3.90894
95
root 8.77069 16.101 10.7842 890.818 -44.7755 -901.458
lowerback 40.428 4.82862 -5.65291
upperback 9.73387 0.498571 -4.70193
thorax -8.65483 -0.74797 -2.15921
lowerneck -4.81448 -0.18856 -5.05118
upperneck -2.98003 -0.0960758 1.08816
head -0.114624 -0.0374787 1.17659
rclavicle -2.3059e-014 6.36111e-014
rhumerus -37.5025 5.53562 -92.9306
rradius 63.7992
rwrist 1.97173
rhand -29.3826 13.5891
rfingers 7.12502
rthumb -2.72117 -16.3732
lclavicle -2.3059e-014 6.36111e-014
lhumerus -28.4777 22.8962 77.2008
lradius 68.8187
lwrist -8.14838
lhand -26.9553 -0.696026
lfingers 7.12502
lthumb -0.376909 29.2834
rfemur -10.3356 -4.25891 16.5891
rtibia 77.365
rfoot -15.7927 7.41444
rtoes -13.4694
lfemur -24.5511 2.38293 -23.9174
ltibia 64.6418
lfoot -28.24 -5.1191
ltoes -3.93161
96
root 8.67758 16.1037 10.7167 890.621 -44.5445 -901.384
lowerback 40.4775 4.70197 -5.56423
upperback 9.75552 0.361896 -4.70207
thorax -8.64915 -0.816882 -2.14807
lowerneck -4.7736 -0.0980542 -5.03947
upperneck -3.02427 0.0224328 1.13128
head -0.13872 0.0225726 1.18977
rclavicle 2.22639e-014 6.52014e-014
rhumerus -37.6121 5.59646 -92.9413
rradius 63.8697
rwrist 1.89993
rhand -29.3848 13.6672
rfingers 7.12502
rthumb -2.7233 -16.2952
lclavicle 2.22639e-014 6.52014e-014
lhumerus -28.4579 22.5858 77.2626
lradius 69.1301
lwrist -8.05888
lhand -26.8622 -0.608659
lfingers 7.12502
lthumb -0.287026 29.3709
rfemur -11.7753 -3.96962 16.7912
rtibia 77.5478
rfoot -16.1706 7.61955
rtoes -12.7927
lfemur -23.8878 2.38127 -23.9107
ltibia 64.6754
lfoot -28.7299 -4.8695
ltoes -4.07193
97
root 8.586 16.1074 10.6484 890.42 -44.3273 -901.286
lowerback 40.5163 4.5726 -5.50642
upperback 9.76769 0.222012 -4.65058
thorax -8.64989 -0.885892 -2.06449
lowerneck -4.7745 -0.015565 -5.06847
upperneck -3.01194 0.133868 1.10886
head -0.138328 0.0785362 1.18914
rclavicle -2.70347e-014 5.88403e-014
rhumerus -37.7656 5.63094 -92.9043
rradius 63.984
rwrist 1.81713
rhand -29.3102 13.7845
rfingers 7.12502
rthumb -2.65128 -16.1787
lclavicle -2.70347e-014 5.88403e-014
lhumerus -28.3733 22.3689 77.3711
lradius 69.3218
lwrist -8.09402
lhand -26.8413 -0.530435
lfingers 7.12502
lthumb -0.26683 29.4491
rfemur -13.1741 -3.71709 17.0161
rtibia 77.5675
rfoot -16.4758 7.82164
rtoes -12.2809
lfemur -23.265 2.47444 -23.8612
ltibia 64.6899
lfoot -29.173 -4.73475
ltoes -4.25681
98
root 8.49361 16.1115 10.579 890.225 -44.0774 -901.19
lowerback 40.5567 4.45098 -5.40793
upperback 9.7638 0.102962 -4.64184
thorax -8.66993 -0.943556 -2.05618
lowerneck -4.74866 0.0499254 -5.072
upperneck -3.01988 0.221414 1.16415
head -0.147798 0.122977 1.20841
rclavicle -8.34896e-014 6.36111e-015
rhumerus -37.9321 5.48612 -92.92
rradius 64.1123
rwrist 1.92248
rhand -29.2474 13.9065
rfingers 7.12502
rthumb -2.59068 -16.0576
lclavicle -8.34896e-014 6.36111e-015
lhumerus -28.3354 22.0563 77.452
lradius 69.5844
lwrist -8.07759
lhand -26.9476 -0.382917
lfingers 7.12502
lthumb -0.369494 29.5965
rfemur -14.528 -3.3799 17.2762
rtibia 77.4533
rfoot -16.9343 7.83679
rtoes -12.5813
lfemur -22.6144 2.5485 -23.8073
ltibia 64.6889
lfoot -29.6008 -4.58551
ltoes -4.24238
99
root 8.40095 16.1184 10.5092 889.992 -43.8426 -901.08
lowerback 40.607 4.32193 -5.2928
upperback 9.79302 -0.0252609 -4.63321
thorax -8.65652 -1.00942 -2.05249
lowerneck -4.83774 0.122526 -5.01758
upperneck -2.98411 0.320729 1.16388
head -0.125054 0.17182 1.2004
rclavicle 1.11319e-014 -1.59028e-014
rhumerus -38.0328 5.37243 -92.9274
rradius 64.2289
rwrist 1.98643
rhand -29.1229 13.9183
rfingers 7.12502
rthumb -2.47044 -16.0472
lclavicle 1.11319e-014 -1.59028e-014
lhumerus -28.1874 21.8201 77.5222
lradius 69.75
lwrist -8.11702
lhand -26.8616 -0.245289
lfingers 7.12502
lthumb -0.286423 29.7343
rfemur -15.769 -2.96059 17.5967
rtibia 77.1578
rfoot -17.267 7.73457
rtoes -12.9637
lfemur -21.9126 2.62449 -23.7433
ltibia 64.6532
lfoot -30.0281 -4.43289
ltoes -4.19505
100
root 8.30857 16.1259 10.4395 889.824 -43.6442 -901.006
lowerback 40.6501 4.18292 -5.17566
upperback 9.78135 -0.157015 -4.63576
thorax -8.68717 -1.07124 -2.06065
lowerneck -4.85414 0.187499 -4.98067
upperneck -2.94502 0.409024 1.22264
head -0.112969 0.216048 1.21395
rclavicle -3.65764e-014 1.33583e-013
rhumerus -38.2719 5.17373 -92.964
rradius 64.4471
rwrist 2.0532
rhand -28.9941 13.9275
rfingers 7.12502
rthumb -2.34604 -16.0393
lclavicle -3.65764e-014 1.33583e-013
lhumerus -28.0869 21.5322 77.5874
lradius 69.9091
lwrist -8.21618
lhand -26.7386 -0.159587
lfingers 7.12502
lthumb -0.16762 29.8201
rfemur -17.0002 -2.57395 17.8779
rtibia 76.7399
rfoot -17.6022 7.62938
rtoes -13.4165
lfemur -21.249 2.7024 -23.7136
ltibia 64.5998
lfoot -30.428 -4.28484
ltoes -4.38116
101
root 8.21528 16.1326 10.3681 889.599 -43.4362 -900.933
lowerback 40.7132 4.04874 -5.11441
upperback 9.78607 -0.307826 -4.60532
thorax -8.70441 -1.14509 -1.99688
lowerneck -4.84658 0.259327 -4.9962
upperneck -2.99054 0.504583 1.26038
head -0.131432 0.264416 1.22978
rclavicle -1.51076e-014 6.20208e-014
rhumerus -38.4797 5.17243 -92.9977
rradius 64.6386
rwrist 2.04297
rhand -28.9088 13.8159
rfingers 7.12502
rthumb -2.26366 -16.1519
lclavicle -1.51076e-014 6.20208e-014
lhumerus -28.0189 21.3882 77.6731
lradius 70.0469
lwrist -8.24404
lhand -26.7681 -0.161849
lfingers 7.12502
lthumb -0.196159 29.8178
rfemur -18.0989 -2.18429 18.1365
rtibia 76.1974
rfoot -17.874 7.60595
rtoes -13.4309
lfemur -20.5049 2.78195 -23.6741
ltibia 64.5302
lfoot -30.8133 -4.17486
ltoes -4.36772
102
root 8.1222 16.1367 10.2975 889.421 -43.2129 -900.868
lowerback 40.7223 3.91975 -5.03848
upperback 9.80725 -0.440617 -4.57743
thorax -8.68652 -1.21134 -1.95034
lowerneck -4.93826 0.336442 -5.00801
upperneck -2.95611 0.613255 1.29547
head -0.109141 0.318696 1.24483
rclavicle 7.15625e-015 -1.08139e-013
rhumerus -38.5851 5.13989 -93.0207
rradius 64.7209
rwrist 2.11387
rhand -28.8565 13.666
rfingers 7.12502
rthumb -2.21309 -16.3023
lclavicle 7.15625e-015 -1.08139e-013
lhumerus -27.9144 21.2094 77.7812
lradius 70.2145
lwrist -8.35354
lhand -26.6996 -0.0903915
lfingers 7.12502
lthumb -0.12994 29.8893
rfemur -19.2037 -1.80961 18.3859
rtibia 75.5564
rfoot -18.1151 7.6049
rtoes -13.4763
lfemur -19.8252 2.92524 -23.6292
ltibia 64.4653
lfoot -31.1777 -4.13688
ltoes -4.21297
103
root 8.02791 16.1412 10.2245 889.187 -42.9885 -900.727
lowerback 40.7526 3.7776 -4.92693
upperback 9.78866 -0.567615 -4.53294
thorax -8.72002 -1.27035 -1.90691
lowerneck -4.94894 0.402358 -5.02823
upperneck -2.93135 0.703729 1.31914
head -0.102746 0.364249 1.25719
rclavicle 6.99722e-014 -1.74931e-014
rhumerus -38.8284 5.05706 -93.0489
rradius 64.8865
rwrist 2.12231
rhand -28.781 13.5157
rfingers 7.12502
rthumb -2.14018 -16.4533
lclavicle 6.99722e-014 -1.74931e-014
lhumerus -27.8489 21.0701 77.871
lradius 70.3134
lwrist -8.54543
lhand -26.6077 -0.0462345
lfingers 7.12502
lthumb -0.0411549 29.9335
rfemur -20.2215 -1.42688 18.6987
rtibia 74.8014
rfoot -18.3189 7.66478
rtoes -13.3585
lfemur -19.1227 3.03702 -23.5297
ltibia 64.4014
lfoot -31.5013 -4.04904
ltoes -4.09023
104
root 7.93189 16.146 10.1524 889.038 -42.7737 -900.73
lowerback 40.7561 3.66016 -4.87075
upperback 9.81261 -0.698782 -4.52965
thorax -8.69759 -1.33631 -1.87733
lowerneck -5.04151 0.477418 -4.95921
upperneck -2.89424 0.805722 1.33473
head -0.0789917 0.414453 1.25204
rclavicle 7.15625e-015 -7.31528e-014
rhumerus -38.9809 4.98879 -93.088
rradius 64.9716
rwrist 2.13957
rhand -28.7047 13.4013
rfingers 7.12502
rthumb -2.06653 -16.5685
lclavicle 7.15625e-015 -7.31528e-014
lhumerus -27.7073 20.8818 77.9893
lradius 70.4104
lwrist -8.54822
lhand -26.4747 0.00742563
lfingers 7.12502
lthumb 0.0872202 29.9872
rfemur -21.1719 -1.05689 18.8617
rtibia 73.9546
rfoot -18.4432 7.75608
rtoes -13.1276
lfemur -18.401 3.18353 -23.5462
ltibia 64.3299
lfoot -31.8382 -3.96798
ltoes -3.85337
105
root 7.83683 16.1475 10.0798 888.835 -42.5868 -900.66
lowerback 40.7953 3.51635 -4.72431
upperback 9.80316 -0.822232 -4.527
thorax -8.72582 -1.39431 -1.89805
lowerneck -5.03412 0.516372 -4.9425
upperneck -2.85204 0.858643 1.38117
head -0.0688994 0.44109 1.26475
rclavicle -4.29375e-014 1.74931e-014
rhumerus -39.2369 4.79521 -93.1426
rradius 65.1238
rwrist 2.31668
rhand -28.7427 13.2359
rfingers 7.12502
rthumb -2.10324 -16.7334
lclavicle -4.29375e-014 1.74931e-014
lhumerus -27.6232 20.5767 78.0684
lradius 70.5213
lwrist -8.59957
lhand -26.4024 0.0108655
lfingers 7.12502
lthumb 0.157139 29.9906
rfemur -22.0849 -0.691432 19.0686
rtibia 73.0296
rfoot -18.5242 7.90331
rtoes -12.7739
lfemur -17.6894 3.31588 -23.4927
ltibia 64.2589
lfoot -32.154 -3.97691
ltoes -3.74188
106
root 7.7425 16.1521 10.0068 888.615 -42.3608 -900.587
lowerback 40.8193 3.40148 -4.65469
upperback 9.79389 -0.932866 -4.47189
thorax -8.7455 -1.44738 -1.8284
lowerneck -4.93606 0.589919 -4.96524
upperneck -2.90686 0.953086 1.40347
head -0.105437 0.48929 1.27635
rclavicle -2.38542e-014 3.18055e-015
rhumerus -39.4946 4.75868 -93.1313
rradius 65.2925
rwrist 2.30108
rhand -28.7023 13.1067
rfingers 7.12502
rthumb -2.06424 -16.8631
lclavicle -2.38542e-014 3.18055e-015
lhumerus -27.5446 20.3399 78.2025
lradius 70.5965
lwrist -8.52951
lhand -26.377 0.0249058
lfingers 7.12502
lthumb 0.181632 30.0046
rfemur -22.889 -0.274123 19.3133
rtibia 71.9806
rfoot -18.6223 7.99761
rtoes -12.8061
lfemur -16.9647 3.49225 -23.4223
ltibia 64.1826
lfoot -32.4359 -3.9461
ltoes -3.5217
